<?xml version="1.0" standalone="no"?>
<!DOCTYPE svg PUBLIC "-//W3C//DTD SVG 20010904//EN"
 "http://www.w3.org/TR/2001/REC-SVG-20010904/DTD/svg10.dtd">
<svg version="1.0" xmlns="http://www.w3.org/2000/svg"
 width="1024.000000pt" height="1024.000000pt" viewBox="0 0 1024.000000 1024.000000"
 preserveAspectRatio="xMidYMid meet">
<metadata>
Created by potrace 1.16, written by Peter Selinger 2001-2019
</metadata>
<g transform="translate(0.000000,1024.000000) scale(0.100000,-0.100000)"
fill="#000000" stroke="none">
<path d="M0 5120 l0 -5120 5120 0 5120 0 0 5120 0 5120 -5120 0 -5120 0 0
-5120z m5129 2676 c1 -156 2 -168 19 -161 56 23 52 47 51 -306 -1 -278 -12
-602 -17 -516 l-2 28 -87 -6 c-49 -3 -129 -11 -180 -17 -88 -10 -92 -12 -96
-37 -2 -14 -5 134 -6 330 l-1 355 145 73 145 74 0 187 c0 188 7 257 21 195 4
-16 7 -106 8 -199z m209 -500 c-2 -173 -8 -301 -15 -316 -7 -18 -12 54 -17
287 -5 172 -5 317 -2 322 4 6 14 7 22 4 14 -5 15 -41 12 -297z m-748 -136
l140 -70 0 -263 0 -264 -57 -12 c-32 -7 -105 -26 -162 -42 -58 -15 -107 -26
-110 -23 -8 7 -14 711 -7 729 10 28 57 15 196 -55z m1138 -4 c70 -35 134 -71
142 -80 10 -14 12 -52 6 -196 -4 -120 -3 -180 4 -180 5 0 10 4 10 8 0 4 17 25
37 46 35 35 41 38 84 34 25 -3 58 -13 72 -24 26 -19 26 -20 27 -159 0 -77 -3
-150 -6 -161 -6 -21 -6 -21 -42 -4 -63 30 -250 89 -356 111 -55 12 -107 23
-113 25 -17 4 -19 644 -3 644 6 0 68 -29 138 -64z m-1643 -267 c-87 -69 -283
-278 -341 -364 -95 -140 -190 -341 -217 -461 -11 -49 -16 -55 -95 -114 -46
-34 -85 -60 -87 -58 -6 7 48 176 82 257 134 313 354 571 627 735 74 44 83 46
31 5z m2218 -90 c267 -197 462 -482 562 -822 21 -72 22 -77 5 -65 -10 7 -48
33 -83 58 -58 41 -66 50 -77 95 -67 272 -279 589 -545 814 l-50 42 45 -25 c25
-14 89 -58 143 -97z m-2020 -205 l-6 -152 -80 -36 c-94 -42 -114 -42 -27 0
l59 29 -82 0 -82 0 -6 -35 c-3 -19 -7 37 -8 126 l-1 161 113 66 112 67 7 -37
c4 -21 4 -106 1 -189z m1092 -149 c513 -73 1032 -308 1758 -797 97 -66 177
-121 177 -122 0 0 -42 0 -92 2 -51 1 -142 -1 -203 -6 -87 -7 -97 -9 -47 -11
l62 -1 0 -74 c0 -72 1 -75 22 -71 13 3 56 28 97 57 41 28 71 47 68 41 -22 -36
-501 -338 -721 -456 -471 -252 -845 -380 -1216 -418 -483 -48 -954 176 -1332
633 -123 148 -122 151 7 34 201 -183 358 -291 556 -385 332 -157 630 -189 945
-100 400 112 717 376 908 757 25 50 49 92 52 92 8 0 138 -105 153 -124 9 -11
-2 -32 -51 -97 -35 -46 -89 -112 -122 -146 -32 -35 -54 -63 -50 -63 36 0 525
304 537 334 5 13 -381 257 -571 359 -291 158 -628 285 -917 349 -144 31 -386
31 -540 -1 -474 -96 -844 -248 -1213 -495 -219 -147 -317 -217 -317 -226 0
-11 202 -170 296 -233 52 -34 109 -84 148 -129 l64 -73 -77 78 c-43 42 -80 77
-84 78 -27 3 -46 10 -75 28 -43 26 -77 56 -77 67 0 10 -104 94 -116 94 -4 0
-18 -10 -30 -21 -13 -12 -42 -31 -65 -43 -23 -11 -44 -27 -47 -33 -2 -7 26
-31 62 -54 36 -23 66 -43 66 -46 0 -3 -15 4 -32 15 -133 81 -163 101 -161 110
1 5 -5 9 -15 8 -9 0 -17 4 -17 11 0 6 -4 15 -9 20 -5 5 -6 3 -2 -4 4 -7 4 -13
0 -13 -7 0 -194 131 -194 137 0 2 6 3 13 2 6 -1 86 0 177 2 l165 3 -193 6
-194 5 209 136 c419 275 579 372 779 472 344 172 657 270 1029 320 74 10 339
5 430 -8z m-165 -342 c0 -5 -69 -89 -153 -188 -83 -100 -170 -204 -192 -233
-27 -36 -41 -48 -46 -39 -4 7 -29 84 -54 171 -44 148 -46 158 -30 176 25 27
152 87 220 104 63 15 255 22 255 9z m214 -78 c82 -49 152 -113 197 -179 21
-32 39 -63 39 -68 0 -6 -25 -7 -62 -4 -56 5 -181 14 -465 32 -98 7 -103 -9 48
165 l101 117 43 -15 c24 -8 68 -29 99 -48z m-689 -312 c37 -115 84 -245 105
-290 21 -46 35 -83 31 -83 -4 0 -68 18 -142 40 -245 73 -223 62 -231 106 -14
72 12 205 54 288 27 52 96 146 108 146 5 0 39 -93 75 -207z m765 17 c213 -19
197 -13 211 -74 15 -70 6 -266 -15 -324 -23 -61 -65 -142 -74 -142 -4 0 -53
93 -110 206 -56 113 -121 235 -142 271 -22 36 -40 67 -40 69 0 6 46 5 170 -6z
m-5 -448 l78 -163 -39 -40 c-51 -53 -139 -104 -231 -135 -80 -27 -220 -42
-247 -27 -17 9 -1 35 161 252 23 31 76 107 119 169 42 62 78 111 79 110 1 -2
37 -76 80 -166z m-831 47 c205 -59 317 -81 423 -83 96 -1 117 -6 93 -21 -5 -3
-58 -69 -116 -146 -67 -88 -112 -139 -124 -139 -10 0 -55 19 -101 42 -141 70
-272 220 -307 351 -10 36 -9 38 10 31 11 -3 66 -19 122 -35z m-896 -557 c117
-148 310 -321 468 -420 199 -124 424 -208 658 -248 136 -23 379 -15 526 16
336 71 598 209 855 448 28 26 59 54 70 62 20 14 20 14 2 -6 -18 -21 -18 -21
58 -33 119 -17 129 -16 165 27 l32 37 -34 -49 c-48 -71 -198 -226 -286 -298
-315 -253 -678 -388 -1092 -405 -765 -30 -1468 406 -1753 1088 l-15 37 146
-94 c124 -79 155 -105 200 -162z m2207 -1308 l47 -17 -7 -46 c-4 -25 -8 -47
-9 -48 -1 -2 -37 4 -80 12 -86 17 -151 9 -173 -21 -17 -24 -16 -31 6 -53 12
-12 46 -22 97 -30 151 -22 209 -74 201 -179 -5 -66 -28 -99 -93 -132 -43 -22
-61 -25 -144 -24 -67 1 -111 7 -150 21 -30 11 -55 22 -54 24 1 2 4 26 8 52 6
40 10 47 25 42 39 -12 157 -35 184 -35 15 0 43 7 62 14 29 13 35 20 35 46 0
37 -31 53 -132 68 -129 19 -182 65 -182 155 0 118 94 183 250 171 34 -2 83
-12 109 -20z m-3526 1 c5 -3 37 -76 72 -163 34 -86 67 -167 72 -180 l11 -23
12 23 c6 13 40 93 74 178 34 85 66 159 71 164 4 5 35 10 69 12 46 2 60 0 60
-11 0 -14 -179 -454 -206 -507 -14 -26 -19 -28 -78 -28 l-64 0 -20 48 c-11 26
-61 145 -113 265 -76 180 -90 220 -78 228 14 10 101 5 118 -6z m931 -45 l0
-60 -145 0 -145 0 0 -50 0 -50 135 0 135 0 0 -32 c0 -78 2 -77 -139 -80 l-126
-3 -3 -47 -3 -47 148 -3 148 -3 3 -57 3 -58 -211 0 -210 0 0 269 c0 206 3 271
13 274 6 3 99 6 205 6 l192 1 0 -60z m321 -94 c63 -85 117 -155 122 -155 4 -1
7 67 7 149 l0 150 60 0 60 0 0 -270 0 -270 -48 0 -48 0 -114 155 c-103 137
-133 172 -129 148 1 -5 1 -74 0 -155 l-1 -148 -60 0 -60 0 0 275 0 275 49 0
49 0 113 -154z m795 138 c-3 -8 -46 -68 -96 -133 -49 -65 -90 -122 -90 -126 0
-4 44 -62 97 -129 53 -66 101 -127 106 -133 7 -10 -7 -13 -64 -12 l-74 0 -90
110 -90 111 -3 -112 -3 -111 -62 3 -62 3 -3 268 -2 267 65 0 64 0 3 -112 3
-112 83 111 c88 119 88 118 181 122 35 1 42 -2 37 -15z m1011 10 l54 -6 -3
-52 -3 -51 -82 -3 -83 -3 -1 -199 c-1 -110 -2 -206 -3 -212 -1 -9 -23 -14 -63
-16 l-63 -3 0 216 0 215 -78 0 c-43 0 -81 2 -83 4 -2 2 -2 29 -1 59 l4 54 175
2 c96 1 200 -1 230 -5z m971 -9 c31 -10 66 -29 86 -49 59 -59 69 -168 22 -239
-28 -42 -104 -80 -159 -78 -23 1 -68 -2 -99 -5 l-58 -6 0 -79 0 -79 -60 0 -60
0 0 270 0 269 128 4 c70 1 132 4 138 5 6 1 34 -5 62 -13z m608 -13 c48 -25
100 -81 122 -131 9 -22 15 -68 15 -118 0 -69 -4 -90 -28 -138 -44 -90 -122
-135 -239 -138 -109 -2 -203 49 -248 137 -33 64 -37 196 -8 264 25 57 72 104
134 134 57 26 193 21 252 -10z m-2162 -9 c19 -39 216 -499 216 -507 0 -4 -30
-6 -66 -4 l-66 3 -22 52 -21 53 -117 0 -117 0 -25 -55 -25 -55 -65 0 -66 0 20
48 c10 26 58 137 105 247 47 110 90 210 95 223 9 20 17 22 75 22 60 0 65 -2
79 -27z m2531 -161 c41 -101 76 -186 78 -188 5 -5 52 103 117 269 l42 107 65
0 c62 0 64 -1 57 -22 -12 -38 -205 -503 -213 -510 -3 -4 -35 -4 -71 0 l-64 7
-32 75 c-31 73 -172 412 -182 438 -3 10 11 12 63 10 l67 -3 73 -183z"/>
<path d="M5127 3994 c-1 -1 -16 -4 -34 -7 -17 -3 -36 -7 -40 -10 -5 -3 -42 -7
-81 -8 -46 -1 -76 -7 -83 -16 -6 -7 -19 -14 -28 -14 -41 -3 76 -18 189 -24
130 -7 315 6 404 28 l50 13 -55 12 c-30 7 -72 10 -94 7 -22 -3 -51 -1 -65 5
-22 8 -156 20 -163 14z"/>
<path d="M6270 3286 l0 -73 66 -6 c109 -8 154 14 154 76 0 13 -9 36 -21 51
-19 25 -25 26 -110 26 l-89 0 0 -74z"/>
<path d="M6904 3369 c-78 -22 -118 -119 -95 -225 19 -84 75 -122 167 -111 80
9 126 72 127 172 1 79 -23 122 -83 153 -47 24 -67 25 -116 11z"/>
</g>
</svg>
